<svg width="223" height="66" viewBox="0 0 223 66" fill="none" xmlns="http://www.w3.org/2000/svg">
<g id="logo-svg 1">
<g id="Gr&#195;&#170;mioMania_-_Original">
<path id="Vector" d="M32.3196 54.6295C30.6471 55.5095 28.9001 56.1463 27.0844 56.54C25.2687 56.9337 23.4129 57.1305 21.5227 57.1305C19.5122 57.1305 17.6564 56.8121 15.961 56.1753C14.2656 55.5384 12.7936 54.6237 11.5621 53.4368C10.3249 52.2442 9.3626 50.8084 8.66954 49.1179C7.98221 47.4216 7.63281 45.54 7.63281 43.4558C7.63281 41.3716 7.98221 39.4842 8.66954 37.7937C9.3626 36.1032 10.3249 34.6616 11.5621 33.4747C12.7993 32.2879 14.2656 31.3732 15.961 30.7363C17.6564 30.0995 19.5122 29.781 21.5227 29.781C23.5332 29.781 25.4806 30.0358 27.2161 30.5337C28.9516 31.0374 30.4752 31.9 31.7812 33.1274L27.7774 37.5389C27.0042 36.7284 26.1336 36.1147 25.1598 35.7037C24.1919 35.2868 22.9776 35.0784 21.5227 35.0784C20.3084 35.0784 19.2144 35.2868 18.2292 35.7037C17.2498 36.1147 16.4021 36.6995 15.7033 37.4463C14.9987 38.1932 14.4603 39.0847 14.0823 40.1095C13.71 41.14 13.521 42.2574 13.521 43.4558C13.521 44.6542 13.71 45.8005 14.0823 46.8195C14.4603 47.8384 14.9987 48.7184 15.7033 49.4653C16.4078 50.2121 17.2498 50.7968 18.2292 51.2137C19.2087 51.6305 20.3084 51.8389 21.5227 51.8389C22.737 51.8389 23.8253 51.7 24.7245 51.4163C25.6238 51.1326 26.3398 50.8489 26.8725 50.5537V46.3216H22.2559V41.03H32.331V54.6295H32.3196ZM34.3587 38.5984V56.4647H39.8115V49.0021C39.8115 48.1163 39.8573 47.3116 39.9604 46.5763C40.0578 45.841 40.2697 45.21 40.5962 44.6832C40.9227 44.1563 41.3924 43.7453 41.9995 43.4558C42.601 43.1605 43.4315 43.01 44.4682 43.01C44.8806 43.01 45.2758 43.0447 45.6481 43.1026C46.0262 43.1605 46.4042 43.2532 46.7937 43.3805V38.3437C46.5245 38.2684 46.2324 38.2221 45.9174 38.1989C45.6023 38.1758 45.2873 38.1584 44.9723 38.1584C43.758 38.1584 42.7499 38.4363 41.9537 38.9863C41.1518 39.5363 40.4645 40.3642 39.8803 41.47H39.8058V38.5984H34.3529H34.3587ZM59.9447 45.5111H52.7449C52.7678 45.0711 52.8709 44.6484 53.0542 44.2432C53.2375 43.8379 53.4895 43.4847 53.8217 43.1779C54.1482 42.8711 54.5434 42.6221 55.0016 42.4253C55.4598 42.2284 55.9983 42.13 56.5997 42.13C57.5963 42.13 58.4097 42.46 59.0397 43.1258C59.6698 43.7858 59.9733 44.5847 59.9504 45.5168M64.567 53.3847L60.7466 50.5537C60.2884 51.1905 59.7442 51.7116 59.1256 52.1168C58.507 52.5221 57.751 52.7247 56.8574 52.7247C55.7921 52.7247 54.8928 52.4121 54.1654 51.7868C53.4379 51.1616 52.9625 50.3221 52.7506 49.2684H65.409V47.5374C65.409 46.1189 65.2143 44.8279 64.8248 43.6758C64.4353 42.5237 63.8854 41.5337 63.1695 40.7174C62.4535 39.8953 61.5771 39.2642 60.5461 38.8242C59.5151 38.3784 58.3696 38.1584 57.1095 38.1584C55.752 38.1584 54.4747 38.3784 53.2718 38.8242C52.0747 39.2642 51.0323 39.8953 50.1445 40.7174C49.2567 41.5337 48.5636 42.5237 48.0538 43.6758C47.544 44.8279 47.292 46.1132 47.292 47.5374C47.292 48.9616 47.544 50.2468 48.0538 51.3989C48.5636 52.5511 49.2624 53.5353 50.1445 54.3574C51.0323 55.1795 52.0747 55.8105 53.2718 56.2505C54.4689 56.6905 55.752 56.9105 57.1095 56.9105C58.5414 56.9105 59.9218 56.6037 61.2564 55.99C62.5909 55.3763 63.6964 54.5079 64.567 53.3789M58.5643 35.7326H63.5819L59.3605 30.4353H53.4322L49.102 35.7326H54.0107L56.2675 32.8668L58.5586 35.7326H58.5643ZM66.8696 38.5984V56.4647H72.3282V47.5663C72.3282 46.9758 72.3626 46.4142 72.437 45.8758C72.5057 45.3374 72.6604 44.8511 72.8895 44.4226C73.1186 43.9942 73.4566 43.6526 73.8919 43.3921C74.3272 43.1374 74.9 43.0042 75.5988 43.0042C76.2288 43.0042 76.7099 43.1489 77.0364 43.45C77.3629 43.7395 77.6035 44.0984 77.7467 44.5153C77.8899 44.9321 77.9758 45.3721 77.9987 45.8411C78.0216 46.3042 78.0331 46.6979 78.0331 47.0163V56.4647H83.4916V47.0163C83.4916 46.4779 83.5432 45.9626 83.6578 45.4705C83.7666 44.9784 83.9441 44.55 84.2019 44.1853C84.4596 43.8205 84.7976 43.5311 85.2214 43.3226C85.6453 43.1142 86.1723 43.01 86.8023 43.01C87.7016 43.01 88.3259 43.311 88.6753 43.9132C89.0247 44.5153 89.2023 45.2332 89.2023 46.0668V56.4705H94.6551V45.9163C94.6551 44.8395 94.5577 43.8263 94.3458 42.8826C94.1396 41.9389 93.8017 41.1168 93.3263 40.4163C92.8509 39.7158 92.2093 39.1658 91.396 38.7605C90.5827 38.3553 89.586 38.1526 88.3946 38.1526C87.083 38.1526 85.9832 38.3958 85.084 38.8879C84.1904 39.3742 83.4229 40.1963 82.7929 41.3484C82.306 40.2484 81.5843 39.4379 80.6278 38.9226C79.6655 38.4074 78.5715 38.1468 77.3343 38.1468C76.6813 38.1468 76.0742 38.2337 75.5128 38.4074C74.9572 38.581 74.4589 38.8011 74.0236 39.0674C73.5883 39.3395 73.2103 39.6405 72.8952 39.9879C72.5802 40.3295 72.3396 40.6768 72.1678 41.0184H72.0933V38.5926H66.8582L66.8696 38.5984ZM95.8579 32.9711C95.8579 33.8568 96.1672 34.6095 96.7858 35.2347C97.4044 35.86 98.1491 36.1726 99.0197 36.1726C99.8903 36.1726 100.641 35.86 101.259 35.2347C101.878 34.6095 102.187 33.8568 102.187 32.9711C102.187 32.0853 101.878 31.3384 101.259 30.7074C100.641 30.0821 99.896 29.7695 99.0197 29.7695C98.1433 29.7695 97.4044 30.0821 96.7858 30.7074C96.1672 31.3326 95.8579 32.0853 95.8579 32.9711ZM96.2933 56.4647H101.746V38.5984H96.2933V56.4647ZM108.694 47.5316C108.694 46.1826 109.078 45.0942 109.839 44.2605C110.607 43.4268 111.672 43.01 113.058 43.01C114.445 43.01 115.51 43.4268 116.278 44.2605C117.039 45.0942 117.423 46.1826 117.423 47.5316C117.423 48.8805 117.039 49.9689 116.278 50.8026C115.51 51.6363 114.439 52.0532 113.058 52.0532C111.678 52.0532 110.601 51.6363 109.839 50.8026C109.072 49.9689 108.694 48.8805 108.694 47.5316ZM103.241 47.5316C103.241 48.9558 103.493 50.241 104.003 51.3932C104.513 52.5453 105.211 53.5295 106.093 54.3516C106.981 55.1737 108.024 55.8047 109.227 56.2447C110.424 56.6847 111.707 56.9047 113.064 56.9047C114.422 56.9047 115.699 56.6847 116.902 56.2447C118.105 55.8047 119.147 55.1737 120.029 54.3516C120.917 53.5295 121.61 52.5453 122.12 51.3932C122.63 50.241 122.882 48.9558 122.882 47.5316C122.882 46.1074 122.63 44.8221 122.12 43.67C121.61 42.5179 120.911 41.5279 120.029 40.7116C119.147 39.8895 118.105 39.2584 116.902 38.8184C115.705 38.3726 114.422 38.1526 113.064 38.1526C111.707 38.1526 110.424 38.3726 109.227 38.8184C108.024 39.2584 106.981 39.8895 106.093 40.7116C105.211 41.5279 104.513 42.5179 104.003 43.67C103.493 44.8221 103.241 46.1074 103.241 47.5316Z" fill="#00ABF0"/>
<path id="Vector_2" d="M124.527 30.4353H133.113L139.042 47.4216H139.116L145.084 30.4353H153.63V56.4647H147.954V36.5026H147.88L141.115 56.4647H136.785L130.272 36.5026H130.198V56.4647H124.527V30.4353ZM165.647 48.6316H166.993V49.8069C166.993 50.3684 166.879 50.8605 166.65 51.2774C166.42 51.6942 166.111 52.0358 165.722 52.3079C165.332 52.5742 164.891 52.7826 164.393 52.9332C163.9 53.0779 163.385 53.1532 162.846 53.1532C162.239 53.1532 161.661 52.9969 161.099 52.6726C160.544 52.3542 160.263 51.8621 160.263 51.2021C160.263 50.5884 160.463 50.1137 160.864 49.7663C161.265 49.4247 161.752 49.1642 162.319 48.9905C162.886 48.8169 163.482 48.7126 164.101 48.6779C164.719 48.6432 165.235 48.62 165.647 48.62M166.993 54.2068V56.4474H172.011V47.3637C172.011 45.87 171.89 44.55 171.65 43.4095C171.404 42.269 170.974 41.3079 170.355 40.5205C169.737 39.739 168.912 39.1426 167.881 38.7374C166.85 38.3321 165.538 38.1295 163.935 38.1295C162.48 38.1295 161.076 38.3668 159.719 38.8474C158.361 39.3221 157.176 40.04 156.156 40.9953L159.066 44.0116C159.644 43.3516 160.309 42.8305 161.048 42.4484C161.787 42.0721 162.606 41.8811 163.505 41.8811C164.45 41.8811 165.269 42.1647 165.962 42.7437C166.655 43.3169 166.999 44.0984 166.999 45.0769C166.249 45.0769 165.429 45.0884 164.547 45.1116C163.665 45.1347 162.778 45.21 161.89 45.3316C161.008 45.4532 160.154 45.6442 159.329 45.9047C158.505 46.1595 157.771 46.5242 157.13 46.9874C156.488 47.4505 155.979 48.0411 155.601 48.7532C155.228 49.4653 155.039 50.3337 155.039 51.3584C155.039 52.2674 155.205 53.0663 155.549 53.7495C155.893 54.4384 156.351 55.0116 156.929 55.4805C157.514 55.9495 158.184 56.2969 158.951 56.5284C159.713 56.76 160.509 56.8816 161.334 56.8816C162.451 56.8816 163.511 56.6732 164.519 56.2563C165.527 55.8395 166.329 55.1563 166.936 54.1953H167.005L166.993 54.2068ZM173.58 38.5811V56.4474H179.039V47.549C179.039 46.9584 179.073 46.3969 179.148 45.8584C179.222 45.32 179.371 44.8337 179.606 44.4053C179.835 43.9768 180.167 43.6353 180.608 43.3747C181.043 43.1142 181.61 42.9869 182.315 42.9869C183.02 42.9869 183.558 43.1316 183.936 43.4269C184.314 43.7221 184.595 44.0984 184.772 44.5674C184.956 45.0305 185.064 45.54 185.099 46.09C185.133 46.64 185.156 47.1784 185.156 47.6879V56.4358H190.609V46.5821C190.609 45.3837 190.523 44.2663 190.357 43.2358C190.185 42.2053 189.864 41.3137 189.395 40.5495C188.919 39.7911 188.26 39.1947 187.413 38.7663C186.565 38.3379 185.448 38.1237 184.068 38.1237C183.415 38.1237 182.808 38.2105 182.252 38.3842C181.691 38.5579 181.192 38.7779 180.757 39.0442C180.322 39.3163 179.944 39.6174 179.629 39.959C179.314 40.3063 179.073 40.6479 178.901 40.9895H178.827V38.5637H173.592L173.58 38.5811ZM191.8 32.9595C191.8 33.8453 192.11 34.5979 192.728 35.2174C193.347 35.8426 194.091 36.1553 194.968 36.1553C195.844 36.1553 196.589 35.8426 197.207 35.2174C197.826 34.5921 198.135 33.8395 198.135 32.9595C198.135 32.0795 197.826 31.3269 197.207 30.6958C196.589 30.0705 195.844 29.7579 194.968 29.7579C194.091 29.7579 193.347 30.0705 192.728 30.6958C192.11 31.3211 191.8 32.0737 191.8 32.9595ZM192.241 56.4532H197.694V38.5869H192.241V56.4532ZM209.591 48.62H210.937V49.7953C210.937 50.3569 210.822 50.849 210.593 51.2658C210.364 51.6826 210.055 52.0242 209.665 52.2963C209.276 52.5626 208.835 52.7711 208.336 52.9216C207.838 53.0663 207.323 53.1416 206.79 53.1416C206.183 53.1416 205.604 52.9853 205.043 52.6611C204.487 52.3426 204.207 51.8505 204.207 51.1905C204.207 50.5768 204.407 50.1021 204.808 49.7547C205.209 49.4132 205.696 49.1526 206.263 48.979C206.836 48.8053 207.426 48.7011 208.044 48.6663C208.663 48.6316 209.178 48.6084 209.591 48.6084M210.937 54.1953V56.4358H215.954V47.3521C215.954 45.8584 215.834 44.5384 215.588 43.3979C215.347 42.2574 214.918 41.2963 214.299 40.509C213.68 39.7274 212.856 39.1311 211.825 38.7258C210.794 38.3205 209.482 38.1179 207.878 38.1179C206.423 38.1179 205.014 38.3553 203.662 38.8358C202.305 39.3105 201.119 40.0284 200.1 40.9837L203.009 44C203.594 43.34 204.252 42.819 204.997 42.4369C205.736 42.0605 206.555 41.8695 207.449 41.8695C208.399 41.8695 209.213 42.1532 209.906 42.7321C210.599 43.3053 210.942 44.0868 210.942 45.0653C210.192 45.0653 209.373 45.0769 208.485 45.1C207.597 45.1232 206.715 45.1984 205.833 45.32C204.945 45.4416 204.092 45.6326 203.267 45.8932C202.442 46.1479 201.709 46.5126 201.068 46.9758C200.426 47.439 199.917 48.0295 199.544 48.7416C199.166 49.4537 198.977 50.3221 198.977 51.3469C198.977 52.2558 199.143 53.0547 199.487 53.7379C199.831 54.4268 200.289 55 200.873 55.469C201.452 55.9379 202.127 56.2853 202.895 56.5169C203.657 56.7484 204.453 56.87 205.278 56.87C206.395 56.87 207.454 56.6616 208.462 56.2447C209.47 55.8279 210.278 55.1447 210.879 54.1837H210.954L210.937 54.1953Z" fill="#006EBE"/>
<path id="Vector_3" d="M115.785 20.2053L112.045 17.49L108.31 20.2053L109.713 15.7763L105.996 12.9974H110.601L112.045 8.58002L113.488 12.9974H118.093L114.382 15.7763L115.785 20.2053Z" fill="#00598E"/>
<path id="Vector_4" d="M115.264 19.8463L111.523 17.1253L107.789 19.8463L109.192 15.4116L105.48 12.6384H110.086L111.523 8.21527L112.967 12.6384H117.572L113.86 15.4116L115.264 19.8463Z" fill="#FFD900"/>
<path id="Vector_5" d="M96.1872 24.7789L92.447 22.0579L88.7067 24.7789L90.11 20.3442L86.3984 17.5711H91.0036L92.447 13.1537L93.8904 17.5711H98.4955L94.7839 20.3442L96.1872 24.7789Z" fill="#00598E"/>
<path id="Vector_6" d="M95.6698 24.4142L91.9295 21.6932L88.195 24.4142L89.5983 19.9853L85.8867 17.2063H90.4919L91.9295 12.7889L93.3729 17.2063H97.9781L94.2665 19.9853L95.6698 24.4142Z" fill="#FFD900"/>
<path id="Vector_7" d="M135.383 24.7789L131.642 22.0579L127.908 24.7789L129.311 20.3442L125.594 17.5711H130.199L131.642 13.1537L133.086 17.5711H137.691L133.979 20.3442L135.383 24.7789Z" fill="#00598E"/>
<path id="Vector_8" d="M134.861 24.4142L131.127 21.6932L127.386 24.4142L128.79 19.9853L125.078 17.2063H129.683L131.127 12.7889L132.564 17.2063H137.169L133.458 19.9853L134.861 24.4142Z" fill="#FFD900"/>
</g>
</g>
</svg>
